<?xml version="1.0" encoding="UTF-8"?>
<svg viewBox="0 0 1024 1024" xmlns="http://www.w3.org/2000/svg">
    <path
        d="M697.4464 381.4656L861.6192 256l-164.1728-125.4656zM697.4464 663.0656L861.6192 537.6l-164.1728-125.4656zM697.4464 919.0656L861.6192 793.6l-164.1728-125.4656z">
    </path>
    <path
        d="M153.6 230.4m38.4 0l588.8 0q38.4 0 38.4 38.4l0 0q0 38.4-38.4 38.4l-588.8 0q-38.4 0-38.4-38.4l0 0q0-38.4 38.4-38.4Z">
    </path>
    <path
        d="M153.6 486.4m38.4 0l588.8 0q38.4 0 38.4 38.4l0 0q0 38.4-38.4 38.4l-588.8 0q-38.4 0-38.4-38.4l0 0q0-38.4 38.4-38.4Z">
    </path>
    <path
        d="M153.6 742.4m38.4 0l512 0q38.4 0 38.4 38.4l0 0q0 38.4-38.4 38.4l-512 0q-38.4 0-38.4-38.4l0 0q0-38.4 38.4-38.4Z" />
</svg>